<svg xmlns="http://www.w3.org/2000/svg" width="30" height="29.993" viewBox="0 0 30 29.993"><defs><style>.a{fill:#384047;}</style></defs><g transform="translate(15 14.997)"><path class="a" d="M15,7.307A7.69,7.69,0,1,0,22.693,15,7.678,7.678,0,0,0,15,7.307ZM15,20a5,5,0,1,1,5-5,5.009,5.009,0,0,1-5,5Zm9.8-13A1.794,1.794,0,1,1,23.008,5.2,1.789,1.789,0,0,1,24.8,6.992Zm5.093,1.82a8.876,8.876,0,0,0-2.423-6.284A8.935,8.935,0,0,0,21.187.105c-2.476-.141-9.9-.141-12.375,0A8.922,8.922,0,0,0,2.528,2.521,8.9,8.9,0,0,0,.105,8.806c-.141,2.476-.141,9.9,0,12.375a8.876,8.876,0,0,0,2.423,6.284,8.946,8.946,0,0,0,6.284,2.423c2.476.141,9.9.141,12.375,0a8.876,8.876,0,0,0,6.284-2.423,8.935,8.935,0,0,0,2.423-6.284c.141-2.476.141-9.892,0-12.368ZM26.7,23.838a5.062,5.062,0,0,1-2.851,2.851c-1.974.783-6.659.6-8.841.6s-6.873.174-8.841-.6a5.062,5.062,0,0,1-2.851-2.851c-.783-1.974-.6-6.659-.6-8.841s-.174-6.873.6-8.841A5.062,5.062,0,0,1,6.162,3.3c1.974-.783,6.659-.6,8.841-.6s6.873-.174,8.841.6A5.062,5.062,0,0,1,26.7,6.156c.783,1.974.6,6.659.6,8.841S27.479,21.87,26.7,23.838Z" transform="translate(-15 -14.997)"/></g></svg>