<svg xmlns="http://www.w3.org/2000/svg" width="30" height="30" viewBox="0 0 30 30"><defs><style>.a{fill:#384047;}</style></defs><g transform="translate(15 15)"><path class="a" d="M27.857,0H2.136A2.152,2.152,0,0,0,0,2.163V27.837A2.152,2.152,0,0,0,2.136,30H27.857A2.158,2.158,0,0,0,30,27.837V2.163A2.158,2.158,0,0,0,27.857,0ZM9.067,25.714H4.621V11.4H9.074V25.714ZM6.844,9.442A2.578,2.578,0,1,1,9.422,6.864,2.579,2.579,0,0,1,6.844,9.442ZM25.734,25.714H21.288V18.75c0-1.661-.033-3.8-2.31-3.8-2.317,0-2.672,1.808-2.672,3.676v7.085H11.859V11.4h4.266v1.955h.06a4.683,4.683,0,0,1,4.212-2.31c4.5,0,5.337,2.967,5.337,6.824Z" transform="translate(-15 -15)"/></g></svg>