<svg xmlns="http://www.w3.org/2000/svg" width="30" height="24.366" viewBox="0 0 30 24.366"><defs><style>.a{fill:#384047;}</style></defs><g transform="translate(239.999 207.918)"><path class="a" d="M26.916,6.072c.019.266.019.533.019.8,0,8.128-6.187,17.494-17.494,17.494A17.375,17.375,0,0,1,0,21.605a12.72,12.72,0,0,0,1.485.076,12.314,12.314,0,0,0,7.633-2.627,6.159,6.159,0,0,1-5.749-4.264,7.754,7.754,0,0,0,1.161.1,6.5,6.5,0,0,0,1.618-.209,6.149,6.149,0,0,1-4.93-6.034V8.566A6.192,6.192,0,0,0,4,9.346a6.158,6.158,0,0,1-1.9-8.223A17.477,17.477,0,0,0,14.772,7.557a6.941,6.941,0,0,1-.152-1.409A6.154,6.154,0,0,1,25.26,1.942a12.105,12.105,0,0,0,3.9-1.485,6.132,6.132,0,0,1-2.7,3.388A12.326,12.326,0,0,0,30,2.893a13.217,13.217,0,0,1-3.084,3.179Z" transform="translate(-239.999 -207.918)"/></g></svg>